<?xml version="1.0" encoding="utf-8"?>
<!-- Generator: Adobe Illustrator 19.0.0, SVG Export Plug-In . SVG Version: 6.00 Build 0)  -->
<svg version="1.1" xmlns="http://www.w3.org/2000/svg" xmlns:xlink="http://www.w3.org/1999/xlink" x="0px" y="0px"
	 viewBox="0 0 870 249.7" style="enable-background:new 0 0 870 249.7;" xml:space="preserve">
<style type="text/css">
	.st0{display:none;}
	.st1{fill:#FFFFFF;}
	.st2{fill:url(#XMLID_3_);}
	.st3{fill:url(#XMLID_4_);}
	.st4{fill:url(#XMLID_5_);}
</style>
<g id="Capa_4">
</g>
<g id="guias" class="st0">
</g>
<g id="Font__x2B__gradient" class="st0">
	<rect id="XMLID_14_" x="-70" y="413.5" style="display:inline;fill:none;" width="1399" height="175"/>
	<text id="XMLID_15_" transform="matrix(1 0 0 1 -70 438.7002)" style="display:inline;"><tspan x="0" y="0" style="font-family:'PTRootUI-Medium'; font-size:36px;">Logo based on “PT Root UI” font.</tspan><tspan x="0" y="43.2" style="font-family:'PTRootUI-Medium'; font-size:36px;">The typography was modified (letter d,  vertically squeezed, a bit rounded) </tspan></text>
	
		<text id="XMLID_17_" transform="matrix(1 0 0 1 1676.6666 192)" style="display:inline; font-family:'MyriadPro-Regular'; font-size:12px;">#8E2DE2</text>
	
		<text id="XMLID_18_" transform="matrix(1 0 0 1 1819.3337 191.9997)" style="display:inline; font-family:'MyriadPro-Regular'; font-size:12px;">#4A00E0</text>
</g>
<g id="Capa_2">
	<g id="XMLID_1_">
		<g id="XMLID_285_">
			<path id="XMLID_237_" class="st1" d="M323.7,206.5c-15.9,0-28.7-4.7-38-14.1c-9.4-9.4-14.2-23.3-14.2-41.4v-6
				c0-8.4,1.3-15.9,3.8-22.4c2.5-6.5,6.1-12.2,10.6-16.8c4.5-4.6,10.1-8.2,16.5-10.6c6.4-2.4,13.6-3.6,21.4-3.6
				c7.3,0,14,0.9,19.7,2.8c5.7,1.9,10.7,4.4,14.9,7.5c4.1,3.1,7.5,6.9,10.1,11.3c2.5,4.3,4.3,9,5.3,13.9l0.2,1.2
				c0.1,0.4-0.2,0.8-0.7,0.8h-23.5c-0.3,0-0.6-0.2-0.7-0.5l-0.2-0.6c-1.6-4.3-4.3-8-8.1-10.9c-3.7-2.9-9.1-4.4-15.8-4.4
				c-8.7,0-15.6,2.6-20.7,7.8c-5.1,5.2-7.7,13.4-7.7,24.4v6c0,12,2.6,20.9,7.7,26.3c5.1,5.4,12,8.1,20.7,8.1
				c6.8,0,12.1-1.6,15.8-4.7c3.8-3.1,6.5-7.4,8.1-12.7l0.2-0.7c0.1-0.3,0.4-0.5,0.7-0.5h23.5c0.4,0,0.8,0.4,0.7,0.8l-0.2,1.2
				c-0.9,5.5-2.7,10.6-5.2,15.1c-2.6,4.6-5.9,8.6-10.1,11.9c-4.1,3.4-9.2,6-14.9,7.9C337.6,205.5,331,206.5,323.7,206.5z"/>
		</g>
		<g id="XMLID_282_">
			<path id="XMLID_274_" class="st1" d="M438,206.5c-16.8,0-30.2-4.7-39.9-14.1c-9.7-9.4-14.6-22.9-14.6-40.3V146
				c0-17.2,5-30.8,14.8-40.2c9.8-9.4,23.1-14.2,39.8-14.2c16.8,0,30.2,4.7,39.9,14.1c9.7,9.4,14.6,22.9,14.6,40.3v6.1
				c0,17.2-5,30.8-14.8,40.2C468,201.7,454.6,206.5,438,206.5z M438,112.7c-9.1,0-16.4,2.7-21.6,8c-5.2,5.3-7.9,13.8-7.9,25.3v6.1
				c0,11.3,2.7,19.8,7.9,25.2c5.2,5.4,12.5,8.1,21.6,8.1s16.4-2.7,21.6-8c5.2-5.3,7.9-13.8,7.9-25.3V146c0-11.3-2.7-19.8-7.9-25.2
				C454.4,115.5,447.2,112.7,438,112.7z"/>
		</g>
		<g id="XMLID_273_">
			<path id="XMLID_222_" class="st1" d="M586.9,108 M556.3,111"/>
			<path id="XMLID_268_" class="st1" d="M551.5,206.5c-14.2,0-25.9-4.6-34.7-13.7c-8.9-9.1-13.3-22.8-13.3-40.7V146
				c0-8.8,1.2-16.6,3.5-23.3c2.4-6.7,5.7-12.5,10-17.1c4.3-4.6,9.4-8.2,15.3-10.5c5.8-2.3,12.3-3.5,19.2-3.5
				c14,0,25.6,4.3,34.6,12.7v-48l23.8-13.1c0.5-0.3,1.2,0,1.2,0.6l0,160.4c0,0.2-0.2,0.4-0.4,0.4h-12.2c-6.1,0-11.3-4.4-12.2-10.5v0
				C577.4,202.4,565.8,206.5,551.5,206.5z M525,146 M557.2,112.7c-8.8,0-15.9,2.7-21.1,8c-5.2,5.3-7.8,13.8-7.8,25.3v6.1
				c0,11.2,2.7,19.6,7.9,25.1c5.2,5.5,12.3,8.2,20.9,8.2c8.8,0,15.9-2.7,21.1-8c5.2-5.3,7.8-13.8,7.8-25.3V146
				c0-11.2-2.7-19.6-7.9-25.1C572.8,115.4,566,112.7,557.2,112.7z"/>
		</g>
		<g id="XMLID_267_">
			<path id="XMLID_262_" class="st1" d="M673.9,206.5c-8.3,0-15.8-1.2-22.5-3.7c-6.7-2.5-12.5-6.1-17.3-10.8
				c-4.7-4.7-8.4-10.5-11-17.1c-2.5-6.6-3.8-14.3-3.8-22.8V146c0-8.5,1.3-16.2,3.8-22.9c2.5-6.8,6.2-12.5,10.8-17.1
				c4.7-4.6,10.4-8.2,16.9-10.6c6.5-2.4,13.9-3.7,21.8-3.7c8,0,15.3,1.2,21.8,3.7c6.5,2.5,12.2,6.1,16.9,10.9
				c4.7,4.8,8.3,10.7,10.8,17.5c2.5,6.8,3.8,14.7,3.8,23.6v9c0,0.3-0.2,0.5-0.5,0.5h-81.1c0.5,8.9,3.2,15.8,7.8,20.8
				c4.9,5.2,11.8,7.8,20.5,7.8c7,0,12.9-1.2,17.3-3.7c4.4-2.4,7.8-6.3,10-11.6l0.4-0.9c0-0.1,0.1-0.2,0.2-0.2h23.8
				c0.4,0,0.8,0.4,0.7,0.8l-0.3,1.3c-2.8,11.6-8.8,20.4-17.6,26.4C698.6,203.5,687.3,206.5,673.9,206.5z M644.8,137.2h56.1
				c-2.2-16.5-11.4-24.5-28.2-24.5c-8.2,0-14.8,2.2-19.5,6.7C648.9,123.5,646,129.5,644.8,137.2z"/>
		</g>
		<g id="XMLID_261_">
			<path id="XMLID_256_" class="st1" d="M790.6,206.5c-8.3,0-15.8-1.2-22.5-3.7c-6.7-2.5-12.5-6.1-17.3-10.8
				c-4.8-4.7-8.4-10.5-11-17.1c-2.5-6.6-3.8-14.3-3.8-22.8V146c0-8.5,1.3-16.2,3.8-22.9c2.5-6.7,6.2-12.5,10.8-17.1
				c4.7-4.6,10.4-8.2,16.9-10.6c6.5-2.4,13.9-3.7,21.8-3.7c8,0,15.3,1.2,21.8,3.7c6.5,2.5,12.2,6.1,16.9,10.9
				c4.7,4.8,8.3,10.7,10.8,17.5c2.5,6.8,3.8,14.7,3.8,23.6v9c0,0.3-0.2,0.5-0.5,0.5h-81.1c0.5,8.9,3.2,15.8,7.8,20.8
				c4.9,5.2,11.8,7.8,20.5,7.8c7,0,12.9-1.2,17.3-3.7c4.4-2.4,7.8-6.3,10-11.6l0.4-0.9c0-0.1,0.1-0.2,0.2-0.2h23.8
				c0.4,0,0.8,0.4,0.7,0.8l-0.3,1.3c-2.8,11.6-8.8,20.4-17.6,26.4C815.3,203.5,804.1,206.5,790.6,206.5z M761.5,137.2h56.1
				c-2.2-16.5-11.4-24.5-28.2-24.5c-8.2,0-14.8,2.2-19.5,6.7C765.6,123.5,762.7,129.5,761.5,137.2z"/>
		</g>
		
			<linearGradient id="XMLID_3_" gradientUnits="userSpaceOnUse" x1="108.3114" y1="69.846" x2="219.737" y2="69.846" gradientTransform="matrix(1.0682 -0.2232 -0.2726 1.0795 30.766 101.3471)">
			<stop  offset="3.350080e-003" style="stop-color:#8E2DE2"/>
			<stop  offset="1" style="stop-color:#4A00E0"/>
		</linearGradient>
		<path id="XMLID_217_" class="st2" d="M211.3,81.1l-41.7,41.7l-41.7,41.7c-4.8,4.8-7.1,11-7.1,17.3s2.4,12.5,7.1,17.3l0,0l0,0
			c4.8,4.8,11,7.1,17.3,7.1c6.3,0,12.5-2.4,17.3-7.1l41.7-41.7l41.7-41.7c4.8-4.8,7.1-11,7.1-17.3c0-6.3-2.4-12.5-7.1-17.3l0,0l0,0
			c-4.8-4.8-11-7.1-17.3-7.1C222.4,74,216.1,76.4,211.3,81.1z"/>
		
			<linearGradient id="XMLID_4_" gradientUnits="userSpaceOnUse" x1="-49.6841" y1="127.3373" x2="58.2247" y2="127.3373" gradientTransform="matrix(0.909 -6.876729e-002 -0.1086 0.9132 88.8175 38.8871)">
			<stop  offset="3.349668e-003" style="stop-color:#8E2DE2"/>
			<stop  offset="1" style="stop-color:#4A00E0"/>
		</linearGradient>
		<path id="XMLID_76_" class="st3" d="M89,110.3l-27.4,27.4l-27.4,27.4c-4.7,4.7-7.1,11-7.1,17.2c0,6.2,2.4,12.5,7.1,17.2l0,0l0,0
			c4.7,4.7,11,7.1,17.2,7.1s12.5-2.4,17.2-7.1l27.4-27.4l27.4-27.4c4.7-4.7,7.1-11,7.1-17.2s-2.4-12.5-7.1-17.2l0,0l0,0
			c-4.7-4.7-11-7.1-17.2-7.1C100,103.1,93.7,105.5,89,110.3z"/>
		
			<linearGradient id="XMLID_5_" gradientUnits="userSpaceOnUse" x1="-858.1668" y1="978.1817" x2="-757.9007" y2="978.1817" gradientTransform="matrix(0.6834 0.1593 0.1296 0.6765 585.3426 -458.944)">
			<stop  offset="3.349256e-003" style="stop-color:#722DE2"/>
			<stop  offset="1" style="stop-color:#4A00E0"/>
		</linearGradient>
		<path id="XMLID_82_" class="st4" d="M149.2,50.2l-6.6,6.6l-6.6,6.6c-4.7,4.8-7.1,11-7.1,17.3s2.4,12.5,7.1,17.3l0,0l0,0
			c4.8,4.7,11,7.1,17.3,7.1c6.3,0,12.5-2.4,17.3-7.1l6.6-6.6l6.6-6.6c4.7-4.8,7.1-11,7.1-17.3s-2.4-12.5-7.1-17.3l0,0l0,0
			c-4.8-4.7-11-7.1-17.3-7.1C160.2,43,154,45.4,149.2,50.2z"/>
	</g>
</g>
</svg>
